<mxfile host="Electron" modified="2024-06-18T14:53:00.989Z" agent="Mozilla/5.0 (Windows NT 10.0; Win64; x64) AppleWebKit/537.36 (KHTML, like Gecko) draw.io/24.5.3 Chrome/124.0.6367.207 Electron/30.0.6 Safari/537.36" etag="GgA7PHVDpTiohYvohbKo" version="24.5.3" type="device">
  <diagram name="Page-1" id="QcIDjGadqrBGffVmuKtb">
    <mxGraphModel dx="2316" dy="1795" grid="0" gridSize="10" guides="1" tooltips="1" connect="1" arrows="1" fold="1" page="1" pageScale="1" pageWidth="850" pageHeight="1100" math="0" shadow="0">
      <root>
        <mxCell id="0" />
        <mxCell id="1" parent="0" />
        <mxCell id="oJZRiNrcPpn60PH8FwtZ-1" value="set_teams" style="shape=process;whiteSpace=wrap;html=1;backgroundOutline=1;" parent="1" vertex="1">
          <mxGeometry x="958" y="197" width="120" height="53" as="geometry" />
        </mxCell>
        <mxCell id="oJZRiNrcPpn60PH8FwtZ-2" value="play_activity" style="shape=process;whiteSpace=wrap;html=1;backgroundOutline=1;" parent="1" vertex="1">
          <mxGeometry x="958" y="405" width="120" height="60" as="geometry" />
        </mxCell>
        <mxCell id="oJZRiNrcPpn60PH8FwtZ-3" value="play_individual_activity" style="shape=process;whiteSpace=wrap;html=1;backgroundOutline=1;" parent="1" vertex="1">
          <mxGeometry x="-247" y="-153" width="170" height="60" as="geometry" />
        </mxCell>
        <mxCell id="oJZRiNrcPpn60PH8FwtZ-5" value="set_teams" style="rounded=1;whiteSpace=wrap;html=1;" parent="1" vertex="1">
          <mxGeometry x="-34" y="-53" width="120" height="60" as="geometry" />
        </mxCell>
        <mxCell id="oJZRiNrcPpn60PH8FwtZ-6" value="for i in range&lt;div&gt;4&lt;/div&gt;" style="rhombus;whiteSpace=wrap;html=1;" parent="1" vertex="1">
          <mxGeometry x="-28" y="20" width="108" height="110" as="geometry" />
        </mxCell>
        <mxCell id="oJZRiNrcPpn60PH8FwtZ-7" value="team_players = players_list[i * 5:(i + 1) * 5]" style="rounded=0;whiteSpace=wrap;html=1;" parent="1" vertex="1">
          <mxGeometry x="-49" y="151" width="150" height="63" as="geometry" />
        </mxCell>
        <mxCell id="oJZRiNrcPpn60PH8FwtZ-9" value="All_teams.&lt;div&gt;append(team_players)&lt;/div&gt;" style="rounded=0;whiteSpace=wrap;html=1;" parent="1" vertex="1">
          <mxGeometry x="-53.5" y="246" width="159" height="56" as="geometry" />
        </mxCell>
        <mxCell id="oJZRiNrcPpn60PH8FwtZ-10" value="end" style="rounded=1;whiteSpace=wrap;html=1;" parent="1" vertex="1">
          <mxGeometry x="89" y="67" width="87" height="52" as="geometry" />
        </mxCell>
        <mxCell id="oJZRiNrcPpn60PH8FwtZ-11" value="" style="endArrow=classic;html=1;rounded=0;fontSize=12;startSize=8;endSize=8;curved=1;exitX=0.5;exitY=1;exitDx=0;exitDy=0;entryX=0.5;entryY=0;entryDx=0;entryDy=0;" parent="1" source="oJZRiNrcPpn60PH8FwtZ-6" target="oJZRiNrcPpn60PH8FwtZ-7" edge="1">
          <mxGeometry width="50" height="50" relative="1" as="geometry">
            <mxPoint x="172" y="95" as="sourcePoint" />
            <mxPoint x="222" y="45" as="targetPoint" />
          </mxGeometry>
        </mxCell>
        <mxCell id="oJZRiNrcPpn60PH8FwtZ-12" value="" style="endArrow=classic;html=1;rounded=0;fontSize=12;startSize=8;endSize=8;curved=1;exitX=0.5;exitY=1;exitDx=0;exitDy=0;entryX=0.5;entryY=0;entryDx=0;entryDy=0;" parent="1" source="oJZRiNrcPpn60PH8FwtZ-7" target="oJZRiNrcPpn60PH8FwtZ-9" edge="1">
          <mxGeometry width="50" height="50" relative="1" as="geometry">
            <mxPoint x="172" y="95" as="sourcePoint" />
            <mxPoint x="222" y="45" as="targetPoint" />
          </mxGeometry>
        </mxCell>
        <mxCell id="oJZRiNrcPpn60PH8FwtZ-13" value="" style="endArrow=classic;html=1;rounded=0;fontSize=12;startSize=8;endSize=8;curved=1;exitX=0.5;exitY=1;exitDx=0;exitDy=0;entryX=0.5;entryY=0;entryDx=0;entryDy=0;" parent="1" source="oJZRiNrcPpn60PH8FwtZ-5" target="oJZRiNrcPpn60PH8FwtZ-6" edge="1">
          <mxGeometry width="50" height="50" relative="1" as="geometry">
            <mxPoint x="172" y="95" as="sourcePoint" />
            <mxPoint x="222" y="45" as="targetPoint" />
          </mxGeometry>
        </mxCell>
        <mxCell id="oJZRiNrcPpn60PH8FwtZ-16" value="" style="endArrow=none;html=1;rounded=0;fontSize=12;startSize=8;endSize=8;curved=1;" parent="1" edge="1">
          <mxGeometry width="50" height="50" relative="1" as="geometry">
            <mxPoint x="-144" y="345" as="sourcePoint" />
            <mxPoint x="-144" y="75" as="targetPoint" />
          </mxGeometry>
        </mxCell>
        <mxCell id="oJZRiNrcPpn60PH8FwtZ-17" value="" style="endArrow=none;html=1;rounded=0;fontSize=12;startSize=8;endSize=8;curved=1;" parent="1" edge="1">
          <mxGeometry width="50" height="50" relative="1" as="geometry">
            <mxPoint x="-146" y="342" as="sourcePoint" />
            <mxPoint x="28" y="342" as="targetPoint" />
          </mxGeometry>
        </mxCell>
        <mxCell id="oJZRiNrcPpn60PH8FwtZ-18" value="" style="endArrow=none;html=1;rounded=0;fontSize=12;startSize=8;endSize=8;curved=1;entryX=0.5;entryY=1;entryDx=0;entryDy=0;" parent="1" target="oJZRiNrcPpn60PH8FwtZ-9" edge="1">
          <mxGeometry width="50" height="50" relative="1" as="geometry">
            <mxPoint x="26" y="342" as="sourcePoint" />
            <mxPoint x="-6" y="245" as="targetPoint" />
          </mxGeometry>
        </mxCell>
        <mxCell id="oJZRiNrcPpn60PH8FwtZ-19" value="" style="endArrow=classic;html=1;rounded=0;fontSize=12;startSize=8;endSize=8;curved=1;entryX=0;entryY=0.5;entryDx=0;entryDy=0;" parent="1" target="oJZRiNrcPpn60PH8FwtZ-6" edge="1">
          <mxGeometry width="50" height="50" relative="1" as="geometry">
            <mxPoint x="-147" y="75" as="sourcePoint" />
            <mxPoint x="-6" y="66" as="targetPoint" />
          </mxGeometry>
        </mxCell>
        <mxCell id="oJZRiNrcPpn60PH8FwtZ-22" value="yes" style="edgeLabel;html=1;align=center;verticalAlign=middle;resizable=0;points=[];fontSize=12;" parent="oJZRiNrcPpn60PH8FwtZ-19" vertex="1" connectable="0">
          <mxGeometry x="-0.1765" relative="1" as="geometry">
            <mxPoint as="offset" />
          </mxGeometry>
        </mxCell>
        <mxCell id="oJZRiNrcPpn60PH8FwtZ-20" value="" style="endArrow=classic;html=1;rounded=0;fontSize=12;startSize=8;endSize=8;curved=1;exitX=1;exitY=0.5;exitDx=0;exitDy=0;entryX=0;entryY=0.5;entryDx=0;entryDy=0;" parent="1" source="oJZRiNrcPpn60PH8FwtZ-6" target="oJZRiNrcPpn60PH8FwtZ-10" edge="1">
          <mxGeometry width="50" height="50" relative="1" as="geometry">
            <mxPoint x="-56" y="116" as="sourcePoint" />
            <mxPoint x="-6" y="66" as="targetPoint" />
          </mxGeometry>
        </mxCell>
        <mxCell id="oJZRiNrcPpn60PH8FwtZ-21" value="no&lt;div&gt;&lt;br&gt;&lt;/div&gt;" style="edgeLabel;html=1;align=center;verticalAlign=middle;resizable=0;points=[];fontSize=12;" parent="oJZRiNrcPpn60PH8FwtZ-20" vertex="1" connectable="0">
          <mxGeometry x="-0.0937" y="-4" relative="1" as="geometry">
            <mxPoint as="offset" />
          </mxGeometry>
        </mxCell>
        <mxCell id="oJZRiNrcPpn60PH8FwtZ-23" value="play_activity" style="rounded=1;whiteSpace=wrap;html=1;" parent="1" vertex="1">
          <mxGeometry x="358" y="-53" width="120" height="60" as="geometry" />
        </mxCell>
        <mxCell id="oJZRiNrcPpn60PH8FwtZ-24" value="total_points = {team_name: 0 for team_name in team_dictionary.keys()}" style="rounded=0;whiteSpace=wrap;html=1;" parent="1" vertex="1">
          <mxGeometry x="309" y="39" width="218" height="60" as="geometry" />
        </mxCell>
        <mxCell id="oJZRiNrcPpn60PH8FwtZ-25" value="for activity in team_act:" style="rhombus;whiteSpace=wrap;html=1;" parent="1" vertex="1">
          <mxGeometry x="359" y="141" width="118" height="103" as="geometry" />
        </mxCell>
        <mxCell id="oJZRiNrcPpn60PH8FwtZ-26" value="placements = random.sample(&lt;div&gt;list(team_dictionary.keys()), 4)&lt;/div&gt;" style="rounded=0;whiteSpace=wrap;html=1;" parent="1" vertex="1">
          <mxGeometry x="312.5" y="290" width="211" height="55" as="geometry" />
        </mxCell>
        <mxCell id="oJZRiNrcPpn60PH8FwtZ-27" value="" style="endArrow=classic;html=1;rounded=0;fontSize=12;startSize=8;endSize=8;curved=1;exitX=0.5;exitY=1;exitDx=0;exitDy=0;" parent="1" source="oJZRiNrcPpn60PH8FwtZ-23" target="oJZRiNrcPpn60PH8FwtZ-24" edge="1">
          <mxGeometry width="50" height="50" relative="1" as="geometry">
            <mxPoint x="294" y="213" as="sourcePoint" />
            <mxPoint x="344" y="163" as="targetPoint" />
          </mxGeometry>
        </mxCell>
        <mxCell id="oJZRiNrcPpn60PH8FwtZ-28" value="" style="endArrow=classic;html=1;rounded=0;fontSize=12;startSize=8;endSize=8;curved=1;exitX=0.5;exitY=1;exitDx=0;exitDy=0;entryX=0.5;entryY=0;entryDx=0;entryDy=0;" parent="1" source="oJZRiNrcPpn60PH8FwtZ-24" target="oJZRiNrcPpn60PH8FwtZ-25" edge="1">
          <mxGeometry width="50" height="50" relative="1" as="geometry">
            <mxPoint x="294" y="213" as="sourcePoint" />
            <mxPoint x="344" y="163" as="targetPoint" />
          </mxGeometry>
        </mxCell>
        <mxCell id="oJZRiNrcPpn60PH8FwtZ-29" value="" style="endArrow=classic;html=1;rounded=0;fontSize=12;startSize=8;endSize=8;curved=1;exitX=0.5;exitY=1;exitDx=0;exitDy=0;entryX=0.5;entryY=0;entryDx=0;entryDy=0;" parent="1" source="oJZRiNrcPpn60PH8FwtZ-25" target="oJZRiNrcPpn60PH8FwtZ-26" edge="1">
          <mxGeometry width="50" height="50" relative="1" as="geometry">
            <mxPoint x="294" y="213" as="sourcePoint" />
            <mxPoint x="344" y="163" as="targetPoint" />
          </mxGeometry>
        </mxCell>
        <mxCell id="oJZRiNrcPpn60PH8FwtZ-39" value="yes" style="edgeLabel;html=1;align=center;verticalAlign=middle;resizable=0;points=[];fontSize=12;" parent="oJZRiNrcPpn60PH8FwtZ-29" vertex="1" connectable="0">
          <mxGeometry x="-0.1304" y="-2" relative="1" as="geometry">
            <mxPoint as="offset" />
          </mxGeometry>
        </mxCell>
        <mxCell id="oJZRiNrcPpn60PH8FwtZ-30" value="for place, team in zip(placement_scores.keys(), placements)" style="rhombus;whiteSpace=wrap;html=1;" parent="1" vertex="1">
          <mxGeometry x="320.5" y="385" width="195" height="169" as="geometry" />
        </mxCell>
        <mxCell id="oJZRiNrcPpn60PH8FwtZ-31" value="" style="endArrow=classic;html=1;rounded=0;fontSize=12;startSize=8;endSize=8;curved=1;exitX=0.5;exitY=1;exitDx=0;exitDy=0;entryX=0.5;entryY=0;entryDx=0;entryDy=0;" parent="1" source="oJZRiNrcPpn60PH8FwtZ-26" target="oJZRiNrcPpn60PH8FwtZ-30" edge="1">
          <mxGeometry width="50" height="50" relative="1" as="geometry">
            <mxPoint x="365" y="313" as="sourcePoint" />
            <mxPoint x="415" y="263" as="targetPoint" />
          </mxGeometry>
        </mxCell>
        <mxCell id="oJZRiNrcPpn60PH8FwtZ-38" value="Text" style="edgeLabel;html=1;align=center;verticalAlign=middle;resizable=0;points=[];fontSize=12;" parent="oJZRiNrcPpn60PH8FwtZ-31" vertex="1" connectable="0">
          <mxGeometry x="-0.2667" y="2" relative="1" as="geometry">
            <mxPoint as="offset" />
          </mxGeometry>
        </mxCell>
        <mxCell id="oJZRiNrcPpn60PH8FwtZ-33" value="total_points[team] += score" style="rounded=0;whiteSpace=wrap;html=1;" parent="1" vertex="1">
          <mxGeometry x="349" y="610" width="143" height="60" as="geometry" />
        </mxCell>
        <mxCell id="oJZRiNrcPpn60PH8FwtZ-34" value="" style="endArrow=classic;html=1;rounded=0;fontSize=12;startSize=8;endSize=8;curved=1;exitX=0.5;exitY=1;exitDx=0;exitDy=0;entryX=0.5;entryY=0;entryDx=0;entryDy=0;" parent="1" source="oJZRiNrcPpn60PH8FwtZ-30" target="oJZRiNrcPpn60PH8FwtZ-33" edge="1">
          <mxGeometry width="50" height="50" relative="1" as="geometry">
            <mxPoint x="365" y="513" as="sourcePoint" />
            <mxPoint x="415" y="463" as="targetPoint" />
          </mxGeometry>
        </mxCell>
        <mxCell id="oJZRiNrcPpn60PH8FwtZ-40" value="yes" style="edgeLabel;html=1;align=center;verticalAlign=middle;resizable=0;points=[];fontSize=12;" parent="oJZRiNrcPpn60PH8FwtZ-34" vertex="1" connectable="0">
          <mxGeometry x="-0.2667" y="4" relative="1" as="geometry">
            <mxPoint as="offset" />
          </mxGeometry>
        </mxCell>
        <mxCell id="oJZRiNrcPpn60PH8FwtZ-36" value="" style="strokeWidth=2;html=1;shape=mxgraph.flowchart.annotation_1;align=left;pointerEvents=1;" parent="1" vertex="1">
          <mxGeometry x="225" y="113" width="193" height="580" as="geometry" />
        </mxCell>
        <mxCell id="oJZRiNrcPpn60PH8FwtZ-37" value="" style="endArrow=none;html=1;rounded=0;fontSize=12;startSize=8;endSize=8;curved=1;exitX=1;exitY=1;exitDx=0;exitDy=0;exitPerimeter=0;elbow=vertical;entryX=1;entryY=0.96;entryDx=0;entryDy=0;entryPerimeter=0;" parent="1" source="oJZRiNrcPpn60PH8FwtZ-36" target="oJZRiNrcPpn60PH8FwtZ-36" edge="1">
          <mxGeometry width="50" height="50" relative="1" as="geometry">
            <mxPoint x="388" y="690" as="sourcePoint" />
            <mxPoint x="494" y="698" as="targetPoint" />
          </mxGeometry>
        </mxCell>
        <mxCell id="oJZRiNrcPpn60PH8FwtZ-44" value="end" style="rounded=1;whiteSpace=wrap;html=1;" parent="1" vertex="1">
          <mxGeometry x="651" y="164.25" width="87" height="56.5" as="geometry" />
        </mxCell>
        <mxCell id="oJZRiNrcPpn60PH8FwtZ-45" value="" style="endArrow=classic;html=1;rounded=0;fontSize=12;startSize=8;endSize=8;curved=1;exitX=1;exitY=0.5;exitDx=0;exitDy=0;" parent="1" source="oJZRiNrcPpn60PH8FwtZ-25" target="oJZRiNrcPpn60PH8FwtZ-46" edge="1">
          <mxGeometry width="50" height="50" relative="1" as="geometry">
            <mxPoint x="410" y="213" as="sourcePoint" />
            <mxPoint x="516" y="193" as="targetPoint" />
          </mxGeometry>
        </mxCell>
        <mxCell id="oJZRiNrcPpn60PH8FwtZ-48" value="no" style="edgeLabel;html=1;align=center;verticalAlign=middle;resizable=0;points=[];fontSize=12;" parent="oJZRiNrcPpn60PH8FwtZ-45" vertex="1" connectable="0">
          <mxGeometry x="-0.3652" y="2" relative="1" as="geometry">
            <mxPoint as="offset" />
          </mxGeometry>
        </mxCell>
        <mxCell id="oJZRiNrcPpn60PH8FwtZ-46" value="return points" style="rounded=0;whiteSpace=wrap;html=1;" parent="1" vertex="1">
          <mxGeometry x="518" y="170" width="107" height="44" as="geometry" />
        </mxCell>
        <mxCell id="oJZRiNrcPpn60PH8FwtZ-47" value="" style="endArrow=classic;html=1;rounded=0;fontSize=12;startSize=8;endSize=8;curved=1;exitX=1;exitY=0.5;exitDx=0;exitDy=0;entryX=0;entryY=0.5;entryDx=0;entryDy=0;" parent="1" source="oJZRiNrcPpn60PH8FwtZ-46" target="oJZRiNrcPpn60PH8FwtZ-44" edge="1">
          <mxGeometry width="50" height="50" relative="1" as="geometry">
            <mxPoint x="659" y="213" as="sourcePoint" />
            <mxPoint x="709" y="163" as="targetPoint" />
          </mxGeometry>
        </mxCell>
        <mxCell id="oJZRiNrcPpn60PH8FwtZ-49" value="no" style="strokeWidth=2;html=1;shape=mxgraph.flowchart.annotation_1;align=left;pointerEvents=1;" parent="1" vertex="1">
          <mxGeometry x="270.5" y="193" width="90.5" height="278" as="geometry" />
        </mxCell>
        <mxCell id="oJZRiNrcPpn60PH8FwtZ-52" value="start" style="rounded=1;whiteSpace=wrap;html=1;" parent="1" vertex="1">
          <mxGeometry x="958" y="11" width="120" height="60" as="geometry" />
        </mxCell>
        <mxCell id="oJZRiNrcPpn60PH8FwtZ-54" value="random.shuffle&lt;div&gt;(players_list)&lt;/div&gt;" style="rounded=0;whiteSpace=wrap;html=1;" parent="1" vertex="1">
          <mxGeometry x="958" y="104.25" width="120" height="60" as="geometry" />
        </mxCell>
        <mxCell id="oJZRiNrcPpn60PH8FwtZ-55" value="" style="endArrow=classic;html=1;rounded=0;fontSize=12;startSize=8;endSize=8;curved=1;exitX=0.5;exitY=1;exitDx=0;exitDy=0;" parent="1" source="oJZRiNrcPpn60PH8FwtZ-52" target="oJZRiNrcPpn60PH8FwtZ-54" edge="1">
          <mxGeometry width="50" height="50" relative="1" as="geometry">
            <mxPoint x="829" y="343" as="sourcePoint" />
            <mxPoint x="879" y="293" as="targetPoint" />
          </mxGeometry>
        </mxCell>
        <mxCell id="oJZRiNrcPpn60PH8FwtZ-56" value="" style="endArrow=classic;html=1;rounded=0;fontSize=12;startSize=8;endSize=8;curved=1;exitX=0.5;exitY=1;exitDx=0;exitDy=0;entryX=0.5;entryY=0;entryDx=0;entryDy=0;" parent="1" source="oJZRiNrcPpn60PH8FwtZ-54" target="oJZRiNrcPpn60PH8FwtZ-1" edge="1">
          <mxGeometry width="50" height="50" relative="1" as="geometry">
            <mxPoint x="829" y="343" as="sourcePoint" />
            <mxPoint x="879" y="293" as="targetPoint" />
          </mxGeometry>
        </mxCell>
        <mxCell id="oJZRiNrcPpn60PH8FwtZ-57" value="output =&lt;div&gt;&amp;nbsp;participants in teams&lt;/div&gt;" style="shape=parallelogram;perimeter=parallelogramPerimeter;whiteSpace=wrap;html=1;fixedSize=1;" parent="1" vertex="1">
          <mxGeometry x="942" y="294" width="152" height="76" as="geometry" />
        </mxCell>
        <mxCell id="oJZRiNrcPpn60PH8FwtZ-58" value="for team_name, points in total_points.items()" style="strokeWidth=2;html=1;shape=mxgraph.flowchart.decision;whiteSpace=wrap;" parent="1" vertex="1">
          <mxGeometry x="927" y="502" width="182" height="171" as="geometry" />
        </mxCell>
        <mxCell id="oJZRiNrcPpn60PH8FwtZ-59" value="print(f&quot;{team_name}: {points} points&quot;)" style="rounded=0;whiteSpace=wrap;html=1;" parent="1" vertex="1">
          <mxGeometry x="958" y="705" width="120" height="60" as="geometry" />
        </mxCell>
        <mxCell id="oJZRiNrcPpn60PH8FwtZ-60" value="" style="endArrow=classic;html=1;rounded=0;fontSize=12;startSize=8;endSize=8;curved=1;exitX=0.5;exitY=1;exitDx=0;exitDy=0;exitPerimeter=0;entryX=0.5;entryY=0;entryDx=0;entryDy=0;" parent="1" source="oJZRiNrcPpn60PH8FwtZ-58" target="oJZRiNrcPpn60PH8FwtZ-59" edge="1">
          <mxGeometry width="50" height="50" relative="1" as="geometry">
            <mxPoint x="942" y="696" as="sourcePoint" />
            <mxPoint x="992" y="646" as="targetPoint" />
          </mxGeometry>
        </mxCell>
        <mxCell id="oJZRiNrcPpn60PH8FwtZ-72" value="yes" style="edgeLabel;html=1;align=center;verticalAlign=middle;resizable=0;points=[];fontSize=12;" parent="oJZRiNrcPpn60PH8FwtZ-60" vertex="1" connectable="0">
          <mxGeometry x="-0.2868" y="-1" relative="1" as="geometry">
            <mxPoint as="offset" />
          </mxGeometry>
        </mxCell>
        <mxCell id="oJZRiNrcPpn60PH8FwtZ-61" value="" style="endArrow=classic;html=1;rounded=0;fontSize=12;startSize=8;endSize=8;curved=1;exitX=0.5;exitY=1;exitDx=0;exitDy=0;entryX=0.5;entryY=0;entryDx=0;entryDy=0;" parent="1" source="oJZRiNrcPpn60PH8FwtZ-1" target="oJZRiNrcPpn60PH8FwtZ-57" edge="1">
          <mxGeometry width="50" height="50" relative="1" as="geometry">
            <mxPoint x="942" y="461" as="sourcePoint" />
            <mxPoint x="992" y="411" as="targetPoint" />
          </mxGeometry>
        </mxCell>
        <mxCell id="oJZRiNrcPpn60PH8FwtZ-62" value="" style="endArrow=classic;html=1;rounded=0;fontSize=12;startSize=8;endSize=8;curved=1;exitX=0.5;exitY=1;exitDx=0;exitDy=0;entryX=0.5;entryY=0;entryDx=0;entryDy=0;" parent="1" source="oJZRiNrcPpn60PH8FwtZ-57" target="oJZRiNrcPpn60PH8FwtZ-2" edge="1">
          <mxGeometry width="50" height="50" relative="1" as="geometry">
            <mxPoint x="942" y="461" as="sourcePoint" />
            <mxPoint x="992" y="411" as="targetPoint" />
          </mxGeometry>
        </mxCell>
        <mxCell id="oJZRiNrcPpn60PH8FwtZ-63" value="" style="endArrow=classic;html=1;rounded=0;fontSize=12;startSize=8;endSize=8;curved=1;entryX=0.5;entryY=0;entryDx=0;entryDy=0;entryPerimeter=0;exitX=0.5;exitY=1;exitDx=0;exitDy=0;" parent="1" source="oJZRiNrcPpn60PH8FwtZ-2" target="oJZRiNrcPpn60PH8FwtZ-58" edge="1">
          <mxGeometry width="50" height="50" relative="1" as="geometry">
            <mxPoint x="942" y="461" as="sourcePoint" />
            <mxPoint x="992" y="411" as="targetPoint" />
          </mxGeometry>
        </mxCell>
        <mxCell id="oJZRiNrcPpn60PH8FwtZ-64" value="if points == winning_point" style="rhombus;whiteSpace=wrap;html=1;" parent="1" vertex="1">
          <mxGeometry x="951.5" y="791" width="133" height="113" as="geometry" />
        </mxCell>
        <mxCell id="oJZRiNrcPpn60PH8FwtZ-65" value="" style="endArrow=classic;html=1;rounded=0;fontSize=12;startSize=8;endSize=8;curved=1;exitX=0.5;exitY=1;exitDx=0;exitDy=0;" parent="1" source="oJZRiNrcPpn60PH8FwtZ-59" target="oJZRiNrcPpn60PH8FwtZ-64" edge="1">
          <mxGeometry width="50" height="50" relative="1" as="geometry">
            <mxPoint x="942" y="814" as="sourcePoint" />
            <mxPoint x="992" y="764" as="targetPoint" />
          </mxGeometry>
        </mxCell>
        <mxCell id="oJZRiNrcPpn60PH8FwtZ-66" value="output= winnter" style="shape=parallelogram;perimeter=parallelogramPerimeter;whiteSpace=wrap;html=1;fixedSize=1;" parent="1" vertex="1">
          <mxGeometry x="958" y="948" width="120" height="60" as="geometry" />
        </mxCell>
        <mxCell id="oJZRiNrcPpn60PH8FwtZ-67" value="" style="endArrow=classic;html=1;rounded=0;fontSize=12;startSize=8;endSize=8;curved=1;exitX=0.5;exitY=1;exitDx=0;exitDy=0;entryX=0.5;entryY=0;entryDx=0;entryDy=0;" parent="1" source="oJZRiNrcPpn60PH8FwtZ-64" target="oJZRiNrcPpn60PH8FwtZ-66" edge="1">
          <mxGeometry width="50" height="50" relative="1" as="geometry">
            <mxPoint x="942" y="814" as="sourcePoint" />
            <mxPoint x="992" y="764" as="targetPoint" />
          </mxGeometry>
        </mxCell>
        <mxCell id="oJZRiNrcPpn60PH8FwtZ-74" value="yes" style="edgeLabel;html=1;align=center;verticalAlign=middle;resizable=0;points=[];fontSize=12;" parent="oJZRiNrcPpn60PH8FwtZ-67" vertex="1" connectable="0">
          <mxGeometry x="-0.393" y="1" relative="1" as="geometry">
            <mxPoint as="offset" />
          </mxGeometry>
        </mxCell>
        <mxCell id="oJZRiNrcPpn60PH8FwtZ-68" value="" style="endArrow=none;html=1;rounded=0;fontSize=12;startSize=8;endSize=8;curved=1;" parent="1" edge="1">
          <mxGeometry width="50" height="50" relative="1" as="geometry">
            <mxPoint x="951.5" y="846.91" as="sourcePoint" />
            <mxPoint x="890.5" y="846.91" as="targetPoint" />
          </mxGeometry>
        </mxCell>
        <mxCell id="oJZRiNrcPpn60PH8FwtZ-73" value="no" style="edgeLabel;html=1;align=center;verticalAlign=middle;resizable=0;points=[];fontSize=12;" parent="oJZRiNrcPpn60PH8FwtZ-68" vertex="1" connectable="0">
          <mxGeometry x="0.2237" y="-2" relative="1" as="geometry">
            <mxPoint as="offset" />
          </mxGeometry>
        </mxCell>
        <mxCell id="oJZRiNrcPpn60PH8FwtZ-69" value="" style="endArrow=none;html=1;rounded=0;fontSize=12;startSize=8;endSize=8;curved=1;" parent="1" edge="1">
          <mxGeometry width="50" height="50" relative="1" as="geometry">
            <mxPoint x="889" y="848" as="sourcePoint" />
            <mxPoint x="889" y="587" as="targetPoint" />
          </mxGeometry>
        </mxCell>
        <mxCell id="oJZRiNrcPpn60PH8FwtZ-71" value="" style="endArrow=none;html=1;rounded=0;fontSize=12;startSize=8;endSize=8;curved=1;entryX=0;entryY=0.5;entryDx=0;entryDy=0;entryPerimeter=0;" parent="1" target="oJZRiNrcPpn60PH8FwtZ-58" edge="1">
          <mxGeometry width="50" height="50" relative="1" as="geometry">
            <mxPoint x="886" y="588" as="sourcePoint" />
            <mxPoint x="992" y="764" as="targetPoint" />
          </mxGeometry>
        </mxCell>
        <mxCell id="oJZRiNrcPpn60PH8FwtZ-76" value="end" style="rounded=1;whiteSpace=wrap;html=1;" parent="1" vertex="1">
          <mxGeometry x="970.5" y="1061" width="95" height="39" as="geometry" />
        </mxCell>
        <mxCell id="oJZRiNrcPpn60PH8FwtZ-77" value="" style="endArrow=classic;html=1;rounded=0;fontSize=12;startSize=8;endSize=8;curved=1;exitX=0.5;exitY=1;exitDx=0;exitDy=0;entryX=0.5;entryY=0;entryDx=0;entryDy=0;" parent="1" source="oJZRiNrcPpn60PH8FwtZ-66" target="oJZRiNrcPpn60PH8FwtZ-76" edge="1">
          <mxGeometry width="50" height="50" relative="1" as="geometry">
            <mxPoint x="942" y="931" as="sourcePoint" />
            <mxPoint x="992" y="881" as="targetPoint" />
          </mxGeometry>
        </mxCell>
        <mxCell id="87SDOlyvdFOEEW-CInD3-1" value="Allocate-Ease" style="ellipse;whiteSpace=wrap;html=1;aspect=fixed;" parent="1" vertex="1">
          <mxGeometry x="1810" y="670" width="188" height="188" as="geometry" />
        </mxCell>
        <mxCell id="87SDOlyvdFOEEW-CInD3-2" value="" style="endArrow=classic;startArrow=classic;html=1;rounded=0;entryX=0;entryY=0.5;entryDx=0;entryDy=0;" parent="1" target="87SDOlyvdFOEEW-CInD3-1" edge="1">
          <mxGeometry width="50" height="50" relative="1" as="geometry">
            <mxPoint x="1737" y="764" as="sourcePoint" />
            <mxPoint x="1706" y="739" as="targetPoint" />
          </mxGeometry>
        </mxCell>
        <mxCell id="87SDOlyvdFOEEW-CInD3-3" value="AI Engine" style="rounded=0;whiteSpace=wrap;html=1;" parent="1" vertex="1">
          <mxGeometry x="1572" y="726" width="167" height="76" as="geometry" />
        </mxCell>
        <mxCell id="87SDOlyvdFOEEW-CInD3-4" value="Data Sources" style="rounded=0;whiteSpace=wrap;html=1;" parent="1" vertex="1">
          <mxGeometry x="2073" y="726" width="167" height="76" as="geometry" />
        </mxCell>
        <mxCell id="87SDOlyvdFOEEW-CInD3-7" value="" style="endArrow=classic;html=1;rounded=0;" parent="1" edge="1">
          <mxGeometry width="50" height="50" relative="1" as="geometry">
            <mxPoint x="2072" y="763.38" as="sourcePoint" />
            <mxPoint x="1998" y="763.38" as="targetPoint" />
          </mxGeometry>
        </mxCell>
        <mxCell id="87SDOlyvdFOEEW-CInD3-8" value="Query Interpretation and Transformation Module(assuming the database uses SQL)" style="rounded=0;whiteSpace=wrap;html=1;" parent="1" vertex="1">
          <mxGeometry x="1601" y="184" width="314" height="60" as="geometry" />
        </mxCell>
        <mxCell id="87SDOlyvdFOEEW-CInD3-9" value="(natrural language processing module)" style="rounded=0;whiteSpace=wrap;html=1;" parent="1" vertex="1">
          <mxGeometry x="1601" y="113" width="312" height="60" as="geometry" />
        </mxCell>
        <mxCell id="87SDOlyvdFOEEW-CInD3-10" value="Database Search and Retrieval Module" style="rounded=0;whiteSpace=wrap;html=1;" parent="1" vertex="1">
          <mxGeometry x="1601" y="254" width="317" height="60" as="geometry" />
        </mxCell>
        <mxCell id="87SDOlyvdFOEEW-CInD3-11" value="&lt;strong&gt;Recommendation Module&lt;/strong&gt;" style="rounded=0;whiteSpace=wrap;html=1;" parent="1" vertex="1">
          <mxGeometry x="1601" y="331" width="316" height="60" as="geometry" />
        </mxCell>
        <mxCell id="87SDOlyvdFOEEW-CInD3-12" value="to breakdown and understand the query and extract key attributes" style="rounded=0;whiteSpace=wrap;html=1;" parent="1" vertex="1">
          <mxGeometry x="1945" y="113" width="321" height="60" as="geometry" />
        </mxCell>
        <mxCell id="87SDOlyvdFOEEW-CInD3-13" value="To be able to transfer the extracted attributes and their relationship into a database queries&amp;nbsp;" style="rounded=0;whiteSpace=wrap;html=1;" parent="1" vertex="1">
          <mxGeometry x="1945" y="184" width="321" height="60" as="geometry" />
        </mxCell>
        <mxCell id="87SDOlyvdFOEEW-CInD3-14" value="Use the generated SQL queries to search the centralized database and retrieve a list of potential candidates that match the criteria." style="rounded=0;whiteSpace=wrap;html=1;" parent="1" vertex="1">
          <mxGeometry x="1945" y="254" width="321" height="60" as="geometry" />
        </mxCell>
        <mxCell id="87SDOlyvdFOEEW-CInD3-15" value="Identify the best candidate based on the scoring algorithm." style="rounded=0;whiteSpace=wrap;html=1;" parent="1" vertex="1">
          <mxGeometry x="1945" y="336" width="321" height="60" as="geometry" />
        </mxCell>
        <mxCell id="87SDOlyvdFOEEW-CInD3-16" value="spaCy,&amp;nbsp;Hugging Face Transformer(advanced NLP models like BERT, GPT-3, or T5),&amp;nbsp;NLTK( basic NLP tasks and text preprocessing)" style="rounded=0;whiteSpace=wrap;html=1;" parent="1" vertex="1">
          <mxGeometry x="2301" y="113" width="357" height="60" as="geometry" />
        </mxCell>
        <mxCell id="87SDOlyvdFOEEW-CInD3-17" value="SQLAlchemy, for database interaction and generating queries" style="rounded=0;whiteSpace=wrap;html=1;" parent="1" vertex="1">
          <mxGeometry x="2301" y="186" width="356" height="60" as="geometry" />
        </mxCell>
        <mxCell id="87SDOlyvdFOEEW-CInD3-18" value="Elasticsearch, for search and retrieval of data form large datasets(advanced search capabilities than traditional SQL databases.)" style="rounded=0;whiteSpace=wrap;html=1;" parent="1" vertex="1">
          <mxGeometry x="2301" y="259" width="355" height="60" as="geometry" />
        </mxCell>
        <mxCell id="87SDOlyvdFOEEW-CInD3-19" value="AI engine requiamenents" style="rounded=0;whiteSpace=wrap;html=1;" parent="1" vertex="1">
          <mxGeometry x="1601" y="447" width="120" height="60" as="geometry" />
        </mxCell>
        <mxCell id="87SDOlyvdFOEEW-CInD3-20" value="To suggest applicants based on similarities." style="rounded=0;whiteSpace=wrap;html=1;" parent="1" vertex="1">
          <mxGeometry x="1769" y="478" width="441" height="60" as="geometry" />
        </mxCell>
        <mxCell id="87SDOlyvdFOEEW-CInD3-21" value="To&amp;nbsp;recommend&amp;nbsp;Workers&amp;nbsp;based on the specific traits and requirements that were&amp;nbsp;specified." style="rounded=0;whiteSpace=wrap;html=1;" parent="1" vertex="1">
          <mxGeometry x="1769" y="409" width="440" height="60" as="geometry" />
        </mxCell>
        <mxCell id="87SDOlyvdFOEEW-CInD3-22" value="Scikit-Learn,TensorFlow or PyTorch (machine learning framework) can be used for impleminenint raniking and scoring algorithm to the ai engine, by&amp;nbsp;&amp;nbsp;setting up an API or a service where the AI engine can query the model with candidate data and receive ranked recommendations." style="rounded=0;whiteSpace=wrap;html=1;" parent="1" vertex="1">
          <mxGeometry x="2331" y="326" width="318" height="145" as="geometry" />
        </mxCell>
        <mxCell id="87SDOlyvdFOEEW-CInD3-25" value="Project Manager/ Allocation manager" style="rounded=0;whiteSpace=wrap;html=1;" parent="1" vertex="1">
          <mxGeometry x="1821" y="904" width="166" height="102" as="geometry" />
        </mxCell>
        <mxCell id="87SDOlyvdFOEEW-CInD3-26" value="" style="endArrow=classic;html=1;rounded=0;entryX=0.5;entryY=0;entryDx=0;entryDy=0;" parent="1" target="87SDOlyvdFOEEW-CInD3-25" edge="1">
          <mxGeometry width="50" height="50" relative="1" as="geometry">
            <mxPoint x="1904" y="858" as="sourcePoint" />
            <mxPoint x="1830" y="858" as="targetPoint" />
          </mxGeometry>
        </mxCell>
        <mxCell id="87SDOlyvdFOEEW-CInD3-27" value="" style="whiteSpace=wrap;html=1;aspect=fixed;" parent="1" vertex="1">
          <mxGeometry x="1094" y="1158" width="499" height="499" as="geometry" />
        </mxCell>
        <mxCell id="87SDOlyvdFOEEW-CInD3-28" value="User&lt;div&gt;&amp;nbsp;Interface&lt;/div&gt;" style="whiteSpace=wrap;html=1;aspect=fixed;" parent="1" vertex="1">
          <mxGeometry x="1135" y="1230" width="166" height="166" as="geometry" />
        </mxCell>
        <mxCell id="87SDOlyvdFOEEW-CInD3-29" value="API" style="whiteSpace=wrap;html=1;aspect=fixed;" parent="1" vertex="1">
          <mxGeometry x="1389" y="1239" width="167" height="167" as="geometry" />
        </mxCell>
        <mxCell id="87SDOlyvdFOEEW-CInD3-30" value="Centralized&lt;div&gt;Database&lt;/div&gt;" style="whiteSpace=wrap;html=1;aspect=fixed;" parent="1" vertex="1">
          <mxGeometry x="1405.5" y="1723" width="166.5" height="166.5" as="geometry" />
        </mxCell>
        <mxCell id="87SDOlyvdFOEEW-CInD3-38" value="" style="endArrow=classic;html=1;rounded=0;entryX=1;entryY=0.5;entryDx=0;entryDy=0;exitX=0;exitY=0.5;exitDx=0;exitDy=0;" parent="1" edge="1">
          <mxGeometry width="50" height="50" relative="1" as="geometry">
            <mxPoint x="1389.5" y="1262" as="sourcePoint" />
            <mxPoint x="1301.4999999999995" y="1262.5" as="targetPoint" />
          </mxGeometry>
        </mxCell>
        <mxCell id="87SDOlyvdFOEEW-CInD3-42" value="Display to UI" style="edgeLabel;html=1;align=center;verticalAlign=middle;resizable=0;points=[];" parent="87SDOlyvdFOEEW-CInD3-38" vertex="1" connectable="0">
          <mxGeometry x="-0.0926" y="1" relative="1" as="geometry">
            <mxPoint as="offset" />
          </mxGeometry>
        </mxCell>
        <mxCell id="87SDOlyvdFOEEW-CInD3-40" value="" style="endArrow=classic;html=1;rounded=0;entryX=0;entryY=0.25;entryDx=0;entryDy=0;exitX=1;exitY=0.25;exitDx=0;exitDy=0;" parent="1" edge="1">
          <mxGeometry width="50" height="50" relative="1" as="geometry">
            <mxPoint x="1299.5" y="1348.75" as="sourcePoint" />
            <mxPoint x="1387.4999999999995" y="1348" as="targetPoint" />
          </mxGeometry>
        </mxCell>
        <mxCell id="87SDOlyvdFOEEW-CInD3-41" value="Query Input" style="edgeLabel;html=1;align=center;verticalAlign=middle;resizable=0;points=[];" parent="87SDOlyvdFOEEW-CInD3-40" vertex="1" connectable="0">
          <mxGeometry x="-0.181" y="-2" relative="1" as="geometry">
            <mxPoint as="offset" />
          </mxGeometry>
        </mxCell>
        <mxCell id="87SDOlyvdFOEEW-CInD3-44" value="Allocate Ease" style="rounded=1;whiteSpace=wrap;html=1;" parent="1" vertex="1">
          <mxGeometry x="1094" y="1158" width="498" height="60" as="geometry" />
        </mxCell>
        <mxCell id="87SDOlyvdFOEEW-CInD3-45" value="" style="whiteSpace=wrap;html=1;aspect=fixed;" parent="1" vertex="1">
          <mxGeometry x="1660" y="1158" width="499" height="499" as="geometry" />
        </mxCell>
        <mxCell id="87SDOlyvdFOEEW-CInD3-46" value="Natural Processing Language Module" style="whiteSpace=wrap;html=1;aspect=fixed;" parent="1" vertex="1">
          <mxGeometry x="1705" y="1240" width="166" height="166" as="geometry" />
        </mxCell>
        <mxCell id="87SDOlyvdFOEEW-CInD3-47" value="Query Processor" style="whiteSpace=wrap;html=1;aspect=fixed;" parent="1" vertex="1">
          <mxGeometry x="1705" y="1454" width="166" height="166" as="geometry" />
        </mxCell>
        <mxCell id="87SDOlyvdFOEEW-CInD3-48" value="Response Generator" style="whiteSpace=wrap;html=1;aspect=fixed;" parent="1" vertex="1">
          <mxGeometry x="1953" y="1240" width="166" height="166" as="geometry" />
        </mxCell>
        <mxCell id="87SDOlyvdFOEEW-CInD3-49" value="Ranking &amp;amp; Scoring Algorithm" style="whiteSpace=wrap;html=1;aspect=fixed;" parent="1" vertex="1">
          <mxGeometry x="1953" y="1454" width="166" height="166" as="geometry" />
        </mxCell>
        <mxCell id="87SDOlyvdFOEEW-CInD3-53" value="Ai Engine" style="rounded=1;whiteSpace=wrap;html=1;" parent="1" vertex="1">
          <mxGeometry x="1660" y="1158" width="498" height="60" as="geometry" />
        </mxCell>
        <mxCell id="87SDOlyvdFOEEW-CInD3-54" value="" style="endArrow=classic;html=1;rounded=0;exitX=1;exitY=0.5;exitDx=0;exitDy=0;" parent="1" source="87SDOlyvdFOEEW-CInD3-29" target="87SDOlyvdFOEEW-CInD3-46" edge="1">
          <mxGeometry width="50" height="50" relative="1" as="geometry">
            <mxPoint x="1547" y="1395" as="sourcePoint" />
            <mxPoint x="1597" y="1345" as="targetPoint" />
          </mxGeometry>
        </mxCell>
        <mxCell id="87SDOlyvdFOEEW-CInD3-55" value="API request" style="edgeLabel;html=1;align=center;verticalAlign=middle;resizable=0;points=[];" parent="87SDOlyvdFOEEW-CInD3-54" vertex="1" connectable="0">
          <mxGeometry x="-0.1428" relative="1" as="geometry">
            <mxPoint as="offset" />
          </mxGeometry>
        </mxCell>
        <mxCell id="87SDOlyvdFOEEW-CInD3-60" value="" style="endArrow=classic;html=1;rounded=0;exitX=0.5;exitY=1;exitDx=0;exitDy=0;entryX=0.5;entryY=0;entryDx=0;entryDy=0;" parent="1" source="87SDOlyvdFOEEW-CInD3-46" target="87SDOlyvdFOEEW-CInD3-47" edge="1">
          <mxGeometry width="50" height="50" relative="1" as="geometry">
            <mxPoint x="1547" y="1538" as="sourcePoint" />
            <mxPoint x="1597" y="1488" as="targetPoint" />
          </mxGeometry>
        </mxCell>
        <mxCell id="87SDOlyvdFOEEW-CInD3-61" value="" style="endArrow=classic;html=1;rounded=0;exitX=1;exitY=0.5;exitDx=0;exitDy=0;" parent="1" source="87SDOlyvdFOEEW-CInD3-47" target="87SDOlyvdFOEEW-CInD3-49" edge="1">
          <mxGeometry width="50" height="50" relative="1" as="geometry">
            <mxPoint x="1547" y="1538" as="sourcePoint" />
            <mxPoint x="1597" y="1488" as="targetPoint" />
          </mxGeometry>
        </mxCell>
        <mxCell id="87SDOlyvdFOEEW-CInD3-64" value="" style="endArrow=classic;startArrow=classic;html=1;rounded=0;" parent="1" edge="1">
          <mxGeometry width="50" height="50" relative="1" as="geometry">
            <mxPoint x="1907" y="1537" as="sourcePoint" />
            <mxPoint x="1574" y="1808" as="targetPoint" />
            <Array as="points">
              <mxPoint x="1907" y="1808" />
              <mxPoint x="1624" y="1808" />
            </Array>
          </mxGeometry>
        </mxCell>
        <mxCell id="87SDOlyvdFOEEW-CInD3-65" value="Api request&amp;nbsp; and response for data" style="edgeLabel;html=1;align=center;verticalAlign=middle;resizable=0;points=[];" parent="87SDOlyvdFOEEW-CInD3-64" vertex="1" connectable="0">
          <mxGeometry x="-0.0212" y="3" relative="1" as="geometry">
            <mxPoint as="offset" />
          </mxGeometry>
        </mxCell>
        <mxCell id="87SDOlyvdFOEEW-CInD3-66" value="" style="endArrow=classic;html=1;rounded=0;exitX=0.5;exitY=0;exitDx=0;exitDy=0;entryX=0.5;entryY=1;entryDx=0;entryDy=0;" parent="1" source="87SDOlyvdFOEEW-CInD3-49" target="87SDOlyvdFOEEW-CInD3-48" edge="1">
          <mxGeometry width="50" height="50" relative="1" as="geometry">
            <mxPoint x="2108" y="1791" as="sourcePoint" />
            <mxPoint x="2158" y="1741" as="targetPoint" />
          </mxGeometry>
        </mxCell>
        <mxCell id="87SDOlyvdFOEEW-CInD3-69" value="" style="endArrow=classic;html=1;rounded=0;entryX=1;entryY=0.25;entryDx=0;entryDy=0;exitX=0;exitY=0.25;exitDx=0;exitDy=0;" parent="1" source="87SDOlyvdFOEEW-CInD3-48" target="87SDOlyvdFOEEW-CInD3-29" edge="1">
          <mxGeometry width="50" height="50" relative="1" as="geometry">
            <mxPoint x="1581" y="1462" as="sourcePoint" />
            <mxPoint x="1631" y="1412" as="targetPoint" />
          </mxGeometry>
        </mxCell>
        <mxCell id="87SDOlyvdFOEEW-CInD3-71" value="API&amp;nbsp; response" style="edgeLabel;html=1;align=center;verticalAlign=middle;resizable=0;points=[];" parent="87SDOlyvdFOEEW-CInD3-69" vertex="1" connectable="0">
          <mxGeometry x="0.7015" y="-1" relative="1" as="geometry">
            <mxPoint as="offset" />
          </mxGeometry>
        </mxCell>
        <mxCell id="87SDOlyvdFOEEW-CInD3-73" value="" style="endArrow=classic;html=1;rounded=0;entryX=0.5;entryY=1;entryDx=0;entryDy=0;" parent="1" target="87SDOlyvdFOEEW-CInD3-30" edge="1">
          <mxGeometry width="50" height="50" relative="1" as="geometry">
            <mxPoint x="1489" y="2005" as="sourcePoint" />
            <mxPoint x="1696" y="1620" as="targetPoint" />
          </mxGeometry>
        </mxCell>
        <mxCell id="87SDOlyvdFOEEW-CInD3-74" value="Data sources" style="rounded=1;whiteSpace=wrap;html=1;" parent="1" vertex="1">
          <mxGeometry x="1317.75" y="2005" width="342" height="123" as="geometry" />
        </mxCell>
        <mxCell id="6xiVsGafGhQ316WKZxsS-1" value="Employee table" style="swimlane;fontStyle=0;childLayout=stackLayout;horizontal=1;startSize=30;horizontalStack=0;resizeParent=1;resizeParentMax=0;resizeLast=0;collapsible=1;marginBottom=0;whiteSpace=wrap;html=1;" parent="1" vertex="1">
          <mxGeometry x="2624.5" y="1192" width="140" height="240" as="geometry" />
        </mxCell>
        <mxCell id="6xiVsGafGhQ316WKZxsS-2" value="&lt;b&gt;Employee_ID&lt;/b&gt;" style="text;strokeColor=none;fillColor=#FF3333;align=left;verticalAlign=middle;spacingLeft=4;spacingRight=4;overflow=hidden;points=[[0,0.5],[1,0.5]];portConstraint=eastwest;rotatable=0;whiteSpace=wrap;html=1;" parent="6xiVsGafGhQ316WKZxsS-1" vertex="1">
          <mxGeometry y="30" width="140" height="30" as="geometry" />
        </mxCell>
        <mxCell id="6xiVsGafGhQ316WKZxsS-3" value="Name" style="text;strokeColor=none;fillColor=none;align=left;verticalAlign=middle;spacingLeft=4;spacingRight=4;overflow=hidden;points=[[0,0.5],[1,0.5]];portConstraint=eastwest;rotatable=0;whiteSpace=wrap;html=1;" parent="6xiVsGafGhQ316WKZxsS-1" vertex="1">
          <mxGeometry y="60" width="140" height="30" as="geometry" />
        </mxCell>
        <mxCell id="6xiVsGafGhQ316WKZxsS-4" value="JobTitle" style="text;strokeColor=none;fillColor=none;align=left;verticalAlign=middle;spacingLeft=4;spacingRight=4;overflow=hidden;points=[[0,0.5],[1,0.5]];portConstraint=eastwest;rotatable=0;whiteSpace=wrap;html=1;" parent="6xiVsGafGhQ316WKZxsS-1" vertex="1">
          <mxGeometry y="90" width="140" height="30" as="geometry" />
        </mxCell>
        <mxCell id="6xiVsGafGhQ316WKZxsS-5" value="Department" style="text;strokeColor=none;fillColor=none;align=left;verticalAlign=middle;spacingLeft=4;spacingRight=4;overflow=hidden;points=[[0,0.5],[1,0.5]];portConstraint=eastwest;rotatable=0;whiteSpace=wrap;html=1;" parent="6xiVsGafGhQ316WKZxsS-1" vertex="1">
          <mxGeometry y="120" width="140" height="30" as="geometry" />
        </mxCell>
        <mxCell id="6xiVsGafGhQ316WKZxsS-6" value="EmployeeType" style="text;strokeColor=none;fillColor=none;align=left;verticalAlign=middle;spacingLeft=4;spacingRight=4;overflow=hidden;points=[[0,0.5],[1,0.5]];portConstraint=eastwest;rotatable=0;whiteSpace=wrap;html=1;" parent="6xiVsGafGhQ316WKZxsS-1" vertex="1">
          <mxGeometry y="150" width="140" height="30" as="geometry" />
        </mxCell>
        <mxCell id="6kAH9V7RKyKgqjYcRyb9-22" value="Location" style="text;strokeColor=none;fillColor=none;align=left;verticalAlign=middle;spacingLeft=4;spacingRight=4;overflow=hidden;points=[[0,0.5],[1,0.5]];portConstraint=eastwest;rotatable=0;whiteSpace=wrap;html=1;" vertex="1" parent="6xiVsGafGhQ316WKZxsS-1">
          <mxGeometry y="180" width="140" height="30" as="geometry" />
        </mxCell>
        <mxCell id="6xiVsGafGhQ316WKZxsS-7" value="ContactInfo" style="text;strokeColor=none;fillColor=none;align=left;verticalAlign=middle;spacingLeft=4;spacingRight=4;overflow=hidden;points=[[0,0.5],[1,0.5]];portConstraint=eastwest;rotatable=0;whiteSpace=wrap;html=1;" parent="6xiVsGafGhQ316WKZxsS-1" vertex="1">
          <mxGeometry y="210" width="140" height="30" as="geometry" />
        </mxCell>
        <mxCell id="6xiVsGafGhQ316WKZxsS-19" value="Skill_table" style="swimlane;fontStyle=0;childLayout=stackLayout;horizontal=1;startSize=30;horizontalStack=0;resizeParent=1;resizeParentMax=0;resizeLast=0;collapsible=1;marginBottom=0;whiteSpace=wrap;html=1;" parent="1" vertex="1">
          <mxGeometry x="2982" y="1107" width="140" height="180" as="geometry" />
        </mxCell>
        <mxCell id="6xiVsGafGhQ316WKZxsS-20" value="&lt;b&gt;Skill_ID&lt;/b&gt;" style="text;strokeColor=none;fillColor=#3399FF;align=left;verticalAlign=middle;spacingLeft=4;spacingRight=4;overflow=hidden;points=[[0,0.5],[1,0.5]];portConstraint=eastwest;rotatable=0;whiteSpace=wrap;html=1;" parent="6xiVsGafGhQ316WKZxsS-19" vertex="1">
          <mxGeometry y="30" width="140" height="30" as="geometry" />
        </mxCell>
        <mxCell id="6xiVsGafGhQ316WKZxsS-21" value="&lt;b&gt;Employee_ID&lt;/b&gt;" style="text;strokeColor=none;fillColor=#FF3333;align=left;verticalAlign=middle;spacingLeft=4;spacingRight=4;overflow=hidden;points=[[0,0.5],[1,0.5]];portConstraint=eastwest;rotatable=0;whiteSpace=wrap;html=1;" parent="6xiVsGafGhQ316WKZxsS-19" vertex="1">
          <mxGeometry y="60" width="140" height="30" as="geometry" />
        </mxCell>
        <mxCell id="6xiVsGafGhQ316WKZxsS-22" value="SkillName" style="text;strokeColor=none;fillColor=none;align=left;verticalAlign=middle;spacingLeft=4;spacingRight=4;overflow=hidden;points=[[0,0.5],[1,0.5]];portConstraint=eastwest;rotatable=0;whiteSpace=wrap;html=1;" parent="6xiVsGafGhQ316WKZxsS-19" vertex="1">
          <mxGeometry y="90" width="140" height="30" as="geometry" />
        </mxCell>
        <mxCell id="6xiVsGafGhQ316WKZxsS-23" value="ProficiencyLevel" style="text;strokeColor=none;fillColor=none;align=left;verticalAlign=middle;spacingLeft=4;spacingRight=4;overflow=hidden;points=[[0,0.5],[1,0.5]];portConstraint=eastwest;rotatable=0;whiteSpace=wrap;html=1;" parent="6xiVsGafGhQ316WKZxsS-19" vertex="1">
          <mxGeometry y="120" width="140" height="30" as="geometry" />
        </mxCell>
        <mxCell id="6xiVsGafGhQ316WKZxsS-24" value="LastUpdated" style="text;strokeColor=none;fillColor=none;align=left;verticalAlign=middle;spacingLeft=4;spacingRight=4;overflow=hidden;points=[[0,0.5],[1,0.5]];portConstraint=eastwest;rotatable=0;whiteSpace=wrap;html=1;" parent="6xiVsGafGhQ316WKZxsS-19" vertex="1">
          <mxGeometry y="150" width="140" height="30" as="geometry" />
        </mxCell>
        <mxCell id="6xiVsGafGhQ316WKZxsS-26" value="Avaliablity_table" style="swimlane;fontStyle=0;childLayout=stackLayout;horizontal=1;startSize=30;horizontalStack=0;resizeParent=1;resizeParentMax=0;resizeLast=0;collapsible=1;marginBottom=0;whiteSpace=wrap;html=1;" parent="1" vertex="1">
          <mxGeometry x="2982" y="1298" width="138" height="210" as="geometry" />
        </mxCell>
        <mxCell id="6xiVsGafGhQ316WKZxsS-27" value="&lt;b&gt;Employee_ID&lt;/b&gt;" style="text;strokeColor=none;fillColor=#FF3333;align=left;verticalAlign=middle;spacingLeft=4;spacingRight=4;overflow=hidden;points=[[0,0.5],[1,0.5]];portConstraint=eastwest;rotatable=0;whiteSpace=wrap;html=1;" parent="6xiVsGafGhQ316WKZxsS-26" vertex="1">
          <mxGeometry y="30" width="138" height="30" as="geometry" />
        </mxCell>
        <mxCell id="6xiVsGafGhQ316WKZxsS-29" value="Total_Hours" style="text;strokeColor=none;fillColor=none;align=left;verticalAlign=middle;spacingLeft=4;spacingRight=4;overflow=hidden;points=[[0,0.5],[1,0.5]];portConstraint=eastwest;rotatable=0;whiteSpace=wrap;html=1;" parent="6xiVsGafGhQ316WKZxsS-26" vertex="1">
          <mxGeometry y="60" width="138" height="30" as="geometry" />
        </mxCell>
        <mxCell id="6xiVsGafGhQ316WKZxsS-30" value="Hours_Working" style="text;strokeColor=none;fillColor=none;align=left;verticalAlign=middle;spacingLeft=4;spacingRight=4;overflow=hidden;points=[[0,0.5],[1,0.5]];portConstraint=eastwest;rotatable=0;whiteSpace=wrap;html=1;" parent="6xiVsGafGhQ316WKZxsS-26" vertex="1">
          <mxGeometry y="90" width="138" height="30" as="geometry" />
        </mxCell>
        <mxCell id="6xiVsGafGhQ316WKZxsS-31" value="Hours_avaliable" style="text;strokeColor=none;fillColor=none;align=left;verticalAlign=middle;spacingLeft=4;spacingRight=4;overflow=hidden;points=[[0,0.5],[1,0.5]];portConstraint=eastwest;rotatable=0;whiteSpace=wrap;html=1;" parent="6xiVsGafGhQ316WKZxsS-26" vertex="1">
          <mxGeometry y="120" width="138" height="30" as="geometry" />
        </mxCell>
        <mxCell id="6xiVsGafGhQ316WKZxsS-32" value="Utilization" style="text;strokeColor=none;fillColor=none;align=left;verticalAlign=middle;spacingLeft=4;spacingRight=4;overflow=hidden;points=[[0,0.5],[1,0.5]];portConstraint=eastwest;rotatable=0;whiteSpace=wrap;html=1;" parent="6xiVsGafGhQ316WKZxsS-26" vertex="1">
          <mxGeometry y="150" width="138" height="30" as="geometry" />
        </mxCell>
        <mxCell id="6kAH9V7RKyKgqjYcRyb9-26" value="Upcoming_leave" style="text;strokeColor=none;fillColor=none;align=left;verticalAlign=middle;spacingLeft=4;spacingRight=4;overflow=hidden;points=[[0,0.5],[1,0.5]];portConstraint=eastwest;rotatable=0;whiteSpace=wrap;html=1;" vertex="1" parent="6xiVsGafGhQ316WKZxsS-26">
          <mxGeometry y="180" width="138" height="30" as="geometry" />
        </mxCell>
        <mxCell id="6xiVsGafGhQ316WKZxsS-33" value="EmployeeProjects_table" style="swimlane;fontStyle=0;childLayout=stackLayout;horizontal=1;startSize=30;horizontalStack=0;resizeParent=1;resizeParentMax=0;resizeLast=0;collapsible=1;marginBottom=0;whiteSpace=wrap;html=1;" parent="1" vertex="1">
          <mxGeometry x="2948" y="1519" width="215" height="210" as="geometry" />
        </mxCell>
        <mxCell id="6xiVsGafGhQ316WKZxsS-34" value="&lt;b&gt;Employee_ID&lt;/b&gt;" style="text;strokeColor=none;fillColor=#FF3333;align=left;verticalAlign=middle;spacingLeft=4;spacingRight=4;overflow=hidden;points=[[0,0.5],[1,0.5]];portConstraint=eastwest;rotatable=0;whiteSpace=wrap;html=1;" parent="6xiVsGafGhQ316WKZxsS-33" vertex="1">
          <mxGeometry y="30" width="215" height="30" as="geometry" />
        </mxCell>
        <mxCell id="6kAH9V7RKyKgqjYcRyb9-12" value="&lt;b&gt;Project_ID&lt;/b&gt;" style="text;strokeColor=none;fillColor=#009900;align=left;verticalAlign=middle;spacingLeft=4;spacingRight=4;overflow=hidden;points=[[0,0.5],[1,0.5]];portConstraint=eastwest;rotatable=0;whiteSpace=wrap;html=1;" vertex="1" parent="6xiVsGafGhQ316WKZxsS-33">
          <mxGeometry y="60" width="215" height="30" as="geometry" />
        </mxCell>
        <mxCell id="6xiVsGafGhQ316WKZxsS-35" value="Total_Hours" style="text;strokeColor=none;fillColor=none;align=left;verticalAlign=middle;spacingLeft=4;spacingRight=4;overflow=hidden;points=[[0,0.5],[1,0.5]];portConstraint=eastwest;rotatable=0;whiteSpace=wrap;html=1;" parent="6xiVsGafGhQ316WKZxsS-33" vertex="1">
          <mxGeometry y="90" width="215" height="30" as="geometry" />
        </mxCell>
        <mxCell id="6xiVsGafGhQ316WKZxsS-36" value="Hours_Working" style="text;strokeColor=none;fillColor=none;align=left;verticalAlign=middle;spacingLeft=4;spacingRight=4;overflow=hidden;points=[[0,0.5],[1,0.5]];portConstraint=eastwest;rotatable=0;whiteSpace=wrap;html=1;" parent="6xiVsGafGhQ316WKZxsS-33" vertex="1">
          <mxGeometry y="120" width="215" height="30" as="geometry" />
        </mxCell>
        <mxCell id="6xiVsGafGhQ316WKZxsS-37" value="Hours_avaliable" style="text;strokeColor=none;fillColor=none;align=left;verticalAlign=middle;spacingLeft=4;spacingRight=4;overflow=hidden;points=[[0,0.5],[1,0.5]];portConstraint=eastwest;rotatable=0;whiteSpace=wrap;html=1;" parent="6xiVsGafGhQ316WKZxsS-33" vertex="1">
          <mxGeometry y="150" width="215" height="30" as="geometry" />
        </mxCell>
        <mxCell id="6xiVsGafGhQ316WKZxsS-38" value="Utilization" style="text;strokeColor=none;fillColor=none;align=left;verticalAlign=middle;spacingLeft=4;spacingRight=4;overflow=hidden;points=[[0,0.5],[1,0.5]];portConstraint=eastwest;rotatable=0;whiteSpace=wrap;html=1;" parent="6xiVsGafGhQ316WKZxsS-33" vertex="1">
          <mxGeometry y="180" width="215" height="30" as="geometry" />
        </mxCell>
        <mxCell id="6xiVsGafGhQ316WKZxsS-39" value="Projects_table" style="swimlane;fontStyle=0;childLayout=stackLayout;horizontal=1;startSize=30;horizontalStack=0;resizeParent=1;resizeParentMax=0;resizeLast=0;collapsible=1;marginBottom=0;whiteSpace=wrap;html=1;" parent="1" vertex="1">
          <mxGeometry x="2598" y="1533" width="215" height="210" as="geometry" />
        </mxCell>
        <mxCell id="6xiVsGafGhQ316WKZxsS-40" value="&lt;b&gt;Project_ID&lt;/b&gt;" style="text;strokeColor=none;fillColor=#009900;align=left;verticalAlign=middle;spacingLeft=4;spacingRight=4;overflow=hidden;points=[[0,0.5],[1,0.5]];portConstraint=eastwest;rotatable=0;whiteSpace=wrap;html=1;" parent="6xiVsGafGhQ316WKZxsS-39" vertex="1">
          <mxGeometry y="30" width="215" height="30" as="geometry" />
        </mxCell>
        <mxCell id="6xiVsGafGhQ316WKZxsS-41" value="Project_Name" style="text;strokeColor=none;fillColor=none;align=left;verticalAlign=middle;spacingLeft=4;spacingRight=4;overflow=hidden;points=[[0,0.5],[1,0.5]];portConstraint=eastwest;rotatable=0;whiteSpace=wrap;html=1;" parent="6xiVsGafGhQ316WKZxsS-39" vertex="1">
          <mxGeometry y="60" width="215" height="30" as="geometry" />
        </mxCell>
        <mxCell id="6xiVsGafGhQ316WKZxsS-45" value="Start_Date" style="text;strokeColor=none;fillColor=none;align=left;verticalAlign=middle;spacingLeft=4;spacingRight=4;overflow=hidden;points=[[0,0.5],[1,0.5]];portConstraint=eastwest;rotatable=0;whiteSpace=wrap;html=1;" parent="6xiVsGafGhQ316WKZxsS-39" vertex="1">
          <mxGeometry y="90" width="215" height="30" as="geometry" />
        </mxCell>
        <mxCell id="6xiVsGafGhQ316WKZxsS-42" value="End_Date" style="text;strokeColor=none;fillColor=none;align=left;verticalAlign=middle;spacingLeft=4;spacingRight=4;overflow=hidden;points=[[0,0.5],[1,0.5]];portConstraint=eastwest;rotatable=0;whiteSpace=wrap;html=1;" parent="6xiVsGafGhQ316WKZxsS-39" vertex="1">
          <mxGeometry y="120" width="215" height="30" as="geometry" />
        </mxCell>
        <mxCell id="6xiVsGafGhQ316WKZxsS-43" value="Status" style="text;strokeColor=none;fillColor=none;align=left;verticalAlign=middle;spacingLeft=4;spacingRight=4;overflow=hidden;points=[[0,0.5],[1,0.5]];portConstraint=eastwest;rotatable=0;whiteSpace=wrap;html=1;" parent="6xiVsGafGhQ316WKZxsS-39" vertex="1">
          <mxGeometry y="150" width="215" height="30" as="geometry" />
        </mxCell>
        <mxCell id="6xiVsGafGhQ316WKZxsS-44" value="Description" style="text;strokeColor=none;fillColor=none;align=left;verticalAlign=middle;spacingLeft=4;spacingRight=4;overflow=hidden;points=[[0,0.5],[1,0.5]];portConstraint=eastwest;rotatable=0;whiteSpace=wrap;html=1;" parent="6xiVsGafGhQ316WKZxsS-39" vertex="1">
          <mxGeometry y="180" width="215" height="30" as="geometry" />
        </mxCell>
        <mxCell id="6kAH9V7RKyKgqjYcRyb9-3" style="edgeStyle=orthogonalEdgeStyle;rounded=0;orthogonalLoop=1;jettySize=auto;html=1;exitX=1;exitY=0.5;exitDx=0;exitDy=0;entryX=0;entryY=0.5;entryDx=0;entryDy=0;" edge="1" parent="1" source="6xiVsGafGhQ316WKZxsS-2" target="6xiVsGafGhQ316WKZxsS-21">
          <mxGeometry relative="1" as="geometry" />
        </mxCell>
        <mxCell id="6kAH9V7RKyKgqjYcRyb9-4" style="edgeStyle=orthogonalEdgeStyle;rounded=0;orthogonalLoop=1;jettySize=auto;html=1;exitX=1;exitY=0.5;exitDx=0;exitDy=0;entryX=0;entryY=0.5;entryDx=0;entryDy=0;strokeColor=#FFFFFF;" edge="1" parent="1" source="6xiVsGafGhQ316WKZxsS-2" target="6xiVsGafGhQ316WKZxsS-27">
          <mxGeometry relative="1" as="geometry" />
        </mxCell>
        <mxCell id="6kAH9V7RKyKgqjYcRyb9-5" style="edgeStyle=orthogonalEdgeStyle;rounded=0;orthogonalLoop=1;jettySize=auto;html=1;exitX=1;exitY=0.5;exitDx=0;exitDy=0;entryX=0;entryY=0.5;entryDx=0;entryDy=0;strokeColor=#FFFFFF;" edge="1" parent="1" source="6xiVsGafGhQ316WKZxsS-2" target="6xiVsGafGhQ316WKZxsS-34">
          <mxGeometry relative="1" as="geometry" />
        </mxCell>
        <mxCell id="6kAH9V7RKyKgqjYcRyb9-13" style="edgeStyle=orthogonalEdgeStyle;rounded=0;orthogonalLoop=1;jettySize=auto;html=1;exitX=1;exitY=0.5;exitDx=0;exitDy=0;entryX=0;entryY=0.5;entryDx=0;entryDy=0;" edge="1" parent="1" source="6xiVsGafGhQ316WKZxsS-40" target="6kAH9V7RKyKgqjYcRyb9-12">
          <mxGeometry relative="1" as="geometry" />
        </mxCell>
      </root>
    </mxGraphModel>
  </diagram>
</mxfile>
